inDegrees=no
num_controls=7
num_derivatives=13
num_iterations=118
num_multipliers=7
num_parameters=0
num_slacks=7
num_states=26
objective=0.497908
objective_accelerations=0.032267
objective_balance=0.003281
objective_effort=0.035120
objective_height=0.421764
objective_ligament=0.005476
solver_duration=1255.878430
status=Solve_Succeeded
success=true
DataType=double
version=3
OpenSimVersion=4.5
endheader
time	/jointset/ground_pelvis/pelvis_tilt/value	/jointset/ground_pelvis/pelvis_tx/value	/jointset/ground_pelvis/pelvis_ty/value	/jointset/hip_r/hip_flexion_r/value	/jointset/hip_r/hip_adduction_r/value	/jointset/hip_r/hip_rotation_r/value	/jointset/back/lumbar_extension/value	/jointset/patellofemoral_r/patellar_flexion_r/value	/jointset/knee_r/knee_flexion_r/value	/jointset/knee_r/knee_adduction_r/value	/jointset/knee_r/knee_rotation_r/value	/jointset/ankle_r/ankle_angle_r/value	/jointset/subtalar_r/subtalar_angle_r/value	/jointset/ground_pelvis/pelvis_tilt/speed	/jointset/ground_pelvis/pelvis_tx/speed	/jointset/ground_pelvis/pelvis_ty/speed	/jointset/hip_r/hip_flexion_r/speed	/jointset/hip_r/hip_adduction_r/speed	/jointset/hip_r/hip_rotation_r/speed	/jointset/back/lumbar_extension/speed	/jointset/patellofemoral_r/patellar_flexion_r/speed	/jointset/knee_r/knee_flexion_r/speed	/jointset/knee_r/knee_adduction_r/speed	/jointset/knee_r/knee_rotation_r/speed	/jointset/ankle_r/ankle_angle_r/speed	/jointset/subtalar_r/subtalar_angle_r/speed	/forceset/tau_hip_flexion_r	/forceset/tau_hip_adduction_r	/forceset/tau_hip_rotation_r	/forceset/tau_knee_flexion_r	/forceset/tau_ankle_angle_r	/forceset/tau_subtalar_angle_r	/forceset/tau_lumbar_extension	lambda_cid13_p0	lambda_cid14_p0	lambda_cid14_p1	lambda_cid14_p2	lambda_cid14_p3	lambda_cid14_p4	lambda_cid14_p5	/jointset/ground_pelvis/pelvis_tilt/accel	/jointset/ground_pelvis/pelvis_tx/accel	/jointset/ground_pelvis/pelvis_ty/accel	/jointset/hip_r/hip_flexion_r/accel	/jointset/hip_r/hip_adduction_r/accel	/jointset/hip_r/hip_rotation_r/accel	/jointset/back/lumbar_extension/accel	/jointset/patellofemoral_r/patellar_flexion_r/accel	/jointset/knee_r/knee_flexion_r/accel	/jointset/knee_r/knee_adduction_r/accel	/jointset/knee_r/knee_rotation_r/accel	/jointset/ankle_r/ankle_angle_r/accel	/jointset/subtalar_r/subtalar_angle_r/accel	gamma_cid13_p0	gamma_cid14_p0	gamma_cid14_p1	gamma_cid14_p2	gamma_cid14_p3	gamma_cid14_p4	gamma_cid14_p5
1.5	-0.1038876143389222	0.06268716863603974	0.8725456598212524	0.6563398871332333	-0.2271898414829281	-0.1452326266379599	-0.27886480046488	0.6391250077351044	0.6391250077350841	0.04181197695901535	0.1745268450068925	0.2566368452517414	0.05871961124300287	0.2226932563718275	0.1133839767388178	0.3172532019752798	-1.415267235710813	0.01792993445559917	-0.2763814507342082	0.6998143764491602	-1.723516967961084	-1.723516967961111	0.2788577751372579	1.347157635241621e-05	-0.6204909728036104	-0.154383123034443	-0.06209362138580325	-0.01712515755365828	0.006404692127668025	-0.3232856491198566	0.05729184257852199	-0.01241745545500437	0.1203534591455563	-34.65735876900948	-23.43954830698946	-5.455896815109053	-3.286119824155712	3.017598913034301	-663.4914491704758	57.47660821117033	0.03746575648278948	0.266820154579429	-0.4326779197007377	-0.7254507965969346	-0.02486928682874304	-0.5511402736221009	1.207156954569895	-1.016584945035388	-1.016584945035322	0.3901872717929068	-0.005944090478720749	-0.4501895011936324	-0.03553966032284323	1.14135152805844e-07	1.490693498604024e-07	-5.755398350254982e-07	1.222232018087353e-06	-1.734094280737337e-08	1.757536582236919e-07	-8.98663190515473e-07
1.51	-0.1016592275541232	0.06383418473429807	0.8756958411597412	0.6421529048868199	-0.2270125250960028	-0.1480231506990724	-0.2718072204566253	0.6218414567575586	0.6218414567575296	0.04462177578453756	0.1745269402117398	0.2504100552303934	0.05717319649616942	0.2229524399004094	0.1160005580405667	0.3127161265608651	-1.421927509885738	0.01753440661319885	-0.2817123215255908	0.7115928508044064	-1.732940674427967	-1.73294067442801	0.2830802245018242	3.79826790545278e-06	-0.6247771288042173	-0.1548714856147981	-0.05662501640847529	-0.01911318417923991	0.005751668730413083	-0.3202677794022649	0.06145895998081759	-0.01313159613617021	0.1152488956243743	-35.52960964307578	-21.97795508863419	-5.398022702973431	-3.423403884861935	2.495451622550106	-660.4632630588762	57.66998158941756	0.01541020384354854	0.2562743029670409	-0.4742260163282958	-0.6060421909779398	-0.04659311818652161	-0.5222000733678901	1.146876516430541	-0.8674061172017216	-0.8674061172041257	0.4349774332065788	0.001473076109792714	-0.4043283061283345	-0.05120342526280379	1.232452876358281e-07	1.50710330929285e-07	-6.91352069958237e-07	1.244595653914765e-06	-6.173441176835581e-09	1.825499835451334e-07	-9.837710941158641e-07
1.52	-0.09942919582347946	0.06500680608257275	0.8787986510112825	0.6279053746060506	-0.2268391037045506	-0.1508666113863921	-0.2646351189367322	0.6044712401914085	0.6044712401913689	0.04747313983659038	0.174526929088928	0.2441431037177124	0.05562275434985824	0.2230222455408984	0.1185050267420906	0.3077789045857952	-1.427376842582168	0.01715093536116163	-0.2869687759758338	0.7227186787767962	-1.740850085682328	-1.740850085682386	0.287170820443113	-7.793955042180876e-06	-0.6285232710701887	-0.1551886029299911	-0.05115641143113544	-0.02110121080481158	0.005098645333122713	-0.3172499096846695	0.06562607738311674	-0.01384573681732127	0.1101443321032003	-36.36808574662562	-20.52528745297036	-5.339085668940843	-3.56385744347577	1.968833174965076	-657.5822554245241	57.93680470081859	-0.0004098211357328829	0.244397634534387	-0.5127072318317897	-0.4832625008977981	-0.02245796875611471	-0.5362570053941697	1.076627677998667	-0.7137259025308845	-0.7137259025308383	0.3638165871374012	-0.006327873378855561	-0.3421867542665324	-0.001290607290423957	1.32815343285511e-07	1.516791247480303e-07	-8.123169390076052e-07	1.262278993802524e-06	5.900390461039577e-09	1.876988780718291e-07	-1.06653098513844e-06
1.53	-0.09719942922407565	0.06620388219188056	0.8818501408794948	0.6136094491755379	-0.2266695097999879	-0.1537624258632671	-0.2573550994140531	0.587029571523632	0.5870295715236208	0.05036474895224564	0.1745269852766665	0.2378414075608751	0.0540699327611002	0.2228995467169138	0.1208882233879758	0.3024578586946673	-1.431600886248304	0.01676953912651762	-0.2921729241575415	0.7331657194775502	-1.747222226702289	-1.747222226702342	0.2911299499273259	1.25991630402727e-05	-0.6317220513761741	-0.1553473122413231	-0.04560588483610784	-0.02320130492036024	0.00446338674416261	-0.3143390898760695	0.06995108493892627	-0.01471250853117437	0.1049866238672607	-37.16834245235634	-19.03701044097521	-5.349609961626649	-3.682489230720108	1.447464979034555	-654.8029375058585	58.12050019324302	-0.0229142851109663	0.2319901031258168	-0.5509462387009647	-0.3608538315071317	-0.04560714686643189	-0.5090906010961811	1.010816323928061	-0.5597746779383447	-0.5597746779374804	0.408740287115921	0.005479670926438225	-0.2946167572749083	-0.01890780313496729	1.428740648061238e-07	1.519337196135049e-07	-9.387564818058919e-07	1.274989519254401e-06	1.893719773171068e-08	1.910973773791072e-07	-1.146796112797086e-06
1.54	-0.09497183248732839	0.06742413215234926	0.8848465916946064	0.5992775076019579	-0.226503655196982	-0.1567096011972659	-0.2499741946728035	0.5695320181504147	0.5695320181504321	0.05329530519435553	0.1745270967488902	0.2315105449832758	0.05251637473721275	0.2225882730096841	0.1231397969742697	0.2967710939656357	-1.434580071195865	0.01640307504995541	-0.2972409474007321	0.7428957224908763	-1.752027026770633	-1.752027026770679	0.294960245733646	3.262942108491186e-06	-0.6343565552225739	-0.1553358899558701	-0.04005535824106823	-0.02530139903590035	0.00382812815518643	-0.3114282700674657	0.07427609249473892	-0.01557928024501521	0.09982891563132935	-37.92595655922729	-17.55819667547555	-5.35855910343382	-3.805064818282315	0.9216365473194517	-652.1825302192888	58.38255272902423	-0.0381247977847284	0.2180730226161188	-0.5858509994125364	-0.2342907571827082	-0.01947153713974869	-0.5090320176907605	0.933220140513092	-0.4002577122072253	-0.4002577122072453	0.3380498515588626	-0.01227374118170384	-0.2293314623494378	0.0327357120665734	1.528149834746966e-07	1.510771915803057e-07	-1.067654273547923e-06	1.278848824284681e-06	3.267578084120624e-08	1.932894521517289e-07	-1.221479257507049e-06
1.55	-0.09274831923858116	0.06866621380642055	0.8877844045390734	0.5849220559157294	-0.2263414307396622	-0.1597070408447461	-0.2424996454310891	0.551994331376121	0.5519943313761304	0.05626344165162002	0.1745272403352079	0.2251561841910302	0.05096374011315092	0.2220814604337616	0.1252516509814655	0.2907364090175991	-1.436295453024424	0.01604344448624011	-0.3022197418639726	0.7518851175881666	-1.755239190737627	-1.755239190737637	0.2986444506733786	1.924023067410885e-05	-0.6364172237772597	-0.155163236780893	-0.03440706974021082	-0.02766554807609149	0.003200117928739287	-0.3086754177747599	0.0788041361342994	-0.01651500094626765	0.09461431470710976	-38.63654296206061	-16.02609469657006	-5.390387880176605	-3.921404228712482	0.3822318883577007	-649.6865324555608	58.66365969836448	-0.06188252931012426	0.2040202218640692	-0.6204982216006993	-0.1079227913337048	-0.04387755808323623	-0.4879788803595695	0.862447954796324	-0.2410587498809003	-0.2410587498753032	0.3801173442856816	0.007821560235494476	-0.179651146831162	0.01364939290317249	1.626201727702667e-07	1.489404567290693e-07	-1.199384395594702e-06	1.272509984046599e-06	4.72229317649995e-08	1.940915160474638e-07	-1.289730987080486e-06
1.56	-0.09053085872395635	0.06992866972698238	0.8906602263382396	0.5705558982320879	-0.2261827363363992	-0.1627534035808024	-0.2349390724863098	0.534432650359971	0.5344326503599722	0.05926772246410407	0.174527401313682	0.2187841733942772	0.04941365587537685	0.2213777261852753	0.1272146502723728	0.2843728849055068	-1.436721270678631	0.01569706423869157	-0.3070255651159673	0.7601004631038303	-1.756825875142033	-1.756825875142005	0.3021891167773207	6.741373631825635e-06	-0.6378865561240663	-0.1548258126983199	-0.02875878123934333	-0.03002969711628031	0.002572107702283552	-0.3059225654820512	0.08333217977386093	-0.01745072164751674	0.08939971378289814	-39.29584643478508	-14.50395450432313	-5.420741479065877	-4.041656974390107	-0.1614716255932098	-647.3592081593921	59.02549363521318	-0.07750913229744656	0.1883020793584005	-0.651618832223689	0.02362207768774429	-0.01682147390639339	-0.4744377754416133	0.7784102241877959	-0.07516179968928026	-0.07516179968927891	0.3101420844007825	-0.01796897030328703	-0.1110642207736249	0.06568989358578252	1.733972751267074e-07	1.487988414886517e-07	-1.336952643697699e-06	1.274714307513299e-06	6.038419609372596e-08	2.017459163848138e-07	-1.363274339916334e-06
